# xmcd CD database file
# Copyright (C) 1993-1998 Ti Kan
#
# Track frame offsets:
#  182
#  9915
#  26262
#  38207
#  56952
#  73417
#  96225
#  109507
#  119582
#  132647
#  144585
#  159710
#  175212
#  190115
#  200410
#
# Disc length: 2847 seconds
#
# Revision: 1
# Processed by: cddbd v1.4b41PL1 Copyright (c) Steve Scherf et al.
# Submitted via: CDWizzard Release:4.35
#
DISCID=db0b1d0f
DTITLE=Maxine Sullivab - Maxine Sullivan - The greates Songs from the Cot
DTITLE=ton Club
DYEAR=1900
DGENRE=
TTITLE0=happy as the day is long
TTITLE1=you gave me ev'rething but love
TTITLE2=as long as I live
TTITLE3=raisin' the rent
TTITLE4='neath the pale cuban
TTITLE5=ill wind
TTITLE6=between the devil and the deep blue sea
TTITLE7=I love a parade
TTITLE8=Harlem holiday
TTITLE9=get yourself a new broom
TTITLE10=stormy weather
TTITLE11=in the silence of the night
TTITLE12=that's what I hate about love
TTITLE13=primitive prima donna
TTITLE14='ve got the world on a string
EXTD=
EXTT0=
EXTT1=
EXTT2=
EXTT3=
EXTT4=
EXTT5=
EXTT6=
EXTT7=
EXTT8=
EXTT9=
EXTT10=
EXTT11=
EXTT12=
EXTT13=
EXTT14=
PLAYORDER=
